<?xml version="1.0" encoding="UTF-8"?>
<svg version="1.1" xmlns="http://www.w3.org/2000/svg" width="633" height="624">
<path d="M0 0 C24.33055186 -3.59924521 48.69049054 -5.93484981 73.25 -7.25 C74.15779929 -7.29984921 75.06559858 -7.34969841 76.00090694 -7.4010582 C122.71903736 -9.88967523 161.33045478 -6.70916149 197.2734375 25.546875 C208.36580801 35.59844159 218.62357615 46.37340381 228.625 57.5 C229.24289965 58.1852368 229.86079929 58.87047359 230.49742317 59.57647514 C245.3185225 76.04137201 259.40694642 93.01944758 272.83779907 110.63415527 C277.87098795 117.19817122 283.18128557 123.34655679 289.10571289 129.12402344 C290.04681412 130.04568298 290.98791534 130.96734253 291.95753479 131.91693115 C292.44876894 132.3959362 292.94000309 132.87494125 293.44612312 133.36846161 C296.10200767 135.96237442 298.74177042 138.57265456 301.38476562 141.1796875 C304.72310622 144.47028284 308.0657953 147.75610933 311.42407227 151.02636719 C314.16227488 153.69364435 316.88499912 156.37592176 319.59856987 159.06824493 C320.62362108 160.07986828 321.65401332 161.08611386 322.6901722 162.08635712 C335.2675873 174.23941422 340.95813786 187.37108809 341.35180664 204.79467773 C341.48158845 222.73052353 338.33467533 237.97212107 325.45117188 251.21411133 C323.31579658 253.36356273 321.14499392 255.47409158 318.96875 257.58203125 C317.80585266 258.73114583 316.64438113 259.88170491 315.48425293 261.03361511 C312.45536754 264.03422267 309.40934343 267.01677486 306.35858154 269.99511719 C302.6608767 273.61085589 298.98218115 277.24591241 295.30265045 280.88012981 C292.4390626 283.70831758 289.57234898 286.53300064 286.69421387 289.34638977 C286.16295395 289.86769974 285.63169403 290.3890097 285.08433533 290.92611694 C283.66017732 292.3235979 282.2335728 293.71858445 280.8067627 295.11335754 C274.98864894 300.99614307 269.8963333 307.36209514 264.93789101 313.97620964 C252.56802506 330.44721154 239.37132724 346.1633853 225.625 361.5 C224.75627966 362.47247539 224.75627966 362.47247539 223.87000942 363.46459675 C194.3879165 396.36670955 166.197311 420.33960945 120.66373873 423.12615299 C104.94875352 423.95612456 89.3339968 423.69018236 73.625 422.875 C72.70960984 422.82866299 71.79421968 422.78232597 70.85109043 422.73458481 C47.11376474 421.50923997 23.54067824 419.27719845 0 416 C3.70381747 411.58091602 7.51795233 407.34041002 11.61889648 403.28344727 C12.14497498 402.75882904 12.67105347 402.23421082 13.21307373 401.69369507 C14.34299312 400.56754802 15.47406495 399.44255626 16.60619926 398.31863594 C18.40469894 396.53304221 20.19993159 394.74421902 21.99440002 392.95457458 C26.45040789 388.51185048 30.91185742 384.0746041 35.37316895 379.63720703 C39.15092815 375.87928172 42.92656202 372.11924461 46.69948006 368.35645866 C48.45599022 366.60636332 50.21551749 364.8593422 51.97520447 363.11244202 C53.0675229 362.02376117 54.15969833 360.93493683 55.25170898 359.84594727 C55.7314064 359.37141617 56.21110382 358.89688507 56.70533752 358.40797424 C59.26213171 355.85156874 61.67811104 353.22928281 64.02359009 350.47740173 C69.48400875 344.18504633 75.47450068 338.39467429 81.37084961 332.515625 C82.72183363 331.16492344 84.07259672 329.81400088 85.42315674 328.46287537 C89.07121713 324.81452928 92.722342 321.16926425 96.37404323 317.52456284 C100.19684371 313.70803388 104.01679305 309.88865335 107.83705139 306.06958008 C115.06321184 298.84652176 122.29191656 291.62601533 129.52154881 284.40643215 C137.75570051 276.18347634 145.98699668 267.95766462 154.21805942 259.73161697 C171.14220732 242.81790815 188.06992118 225.90777202 205 209 C203.3832972 204.94499138 200.50102787 202.23038807 197.45368958 199.21990967 C196.8811388 198.64635561 196.30858803 198.07280156 195.71868724 197.48186707 C193.79739792 195.55962457 191.86904918 193.64462402 189.94067383 191.72949219 C188.56215502 190.35317452 187.18408359 188.97640863 185.806427 187.59922791 C182.83714646 184.63288254 179.86473397 181.66972413 176.8898716 178.70897675 C172.18225007 174.02361835 167.48172372 169.33118522 162.78215027 164.63775635 C155.34281753 157.20981183 147.89883061 149.78655167 140.45280904 142.36531281 C127.1334292 129.09019736 113.81952758 115.80959358 100.51092547 102.5236733 C95.84231587 97.86345097 91.17091207 93.20605321 86.49721396 88.55093431 C83.58252527 85.6469298 80.66990003 82.7408621 77.75777054 79.83429146 C76.41189776 78.49187358 75.06515482 77.15032742 73.71745491 75.80974388 C61.74429868 63.89839192 61.74429868 63.89839192 56.43793583 57.66433907 C54.1374701 55.00166462 51.65663859 52.53257481 49.15649414 50.05883789 C48.61902557 49.52282959 48.08155701 48.98682129 47.52780151 48.43457031 C46.37769903 47.28823168 45.22644462 46.14304773 44.07411385 44.99894905 C42.25225713 43.18999004 40.43366084 41.3778076 38.61582947 39.56480408 C34.76754333 35.72786216 30.91529756 31.89491112 27.0625 28.0625 C22.57167224 23.59527019 18.08248011 19.12642128 13.59744072 14.65337944 C11.80234061 12.8647784 10.00426734 11.07920277 8.20606995 9.29371643 C7.11648206 8.2077575 6.02703233 7.12165994 4.93774414 6.03540039 C4.43445084 5.53727341 3.93115753 5.03914642 3.41261292 4.52592468 C2.25594572 3.36943762 1.12486856 2.18743928 0 1 C0 0.67 0 0.34 0 0 Z " fill="#FEFEFE" transform="translate(259,208)"/>
<path d="M0 0 C0.88046525 0.05736706 1.7609305 0.11473412 2.66807652 0.17383957 C25.31112054 1.67789962 47.67898716 4.40763076 70 8.5 C65.90377862 13.38150907 61.65521039 17.98485395 57.13746643 22.47605896 C56.47165981 23.14201444 55.80585318 23.80796992 55.1198706 24.49410588 C52.90462732 26.70865876 50.68583856 28.91962388 48.46704102 31.13061523 C46.87140003 32.72433559 45.27598766 34.31828485 43.68078613 35.91244507 C40.25283536 39.33724126 36.82333858 42.76047903 33.39264107 46.18252373 C27.96448917 51.59712524 22.54017843 57.01556383 17.11643982 62.43458557 C9.50930525 70.03439395 1.9007831 77.63280904 -5.70922852 85.22973633 C-6.19146954 85.71114954 -6.67371057 86.19256276 -7.17056496 86.68856425 C-11.08234882 90.59360501 -14.99422343 94.49855486 -18.90610313 98.4034996 C-22.32424437 101.81558837 -25.74234976 105.22771304 -29.16040039 108.63989258 C-29.64174651 109.12041057 -30.12309262 109.60092856 -30.61902498 110.0960077 C-38.65881401 118.12208763 -46.6966008 126.15016927 -54.73303086 134.1796127 C-60.12123167 139.56284013 -65.51185956 144.94362156 -70.90437496 150.32252681 C-74.26268408 153.67335947 -77.61890478 157.02627799 -80.97457123 160.37975693 C-82.5268659 161.93018473 -84.08002222 163.47975042 -85.63411903 165.02837181 C-87.76191265 167.14890657 -89.88655288 169.27255374 -92.01048279 171.3969574 C-92.92509573 172.3061779 -92.92509573 172.3061779 -93.85818571 173.2337665 C-97.52123717 176.90552738 -100.96796454 180.71181143 -104.36068982 184.63401276 C-106.57491262 187.15440917 -108.91037963 189.53318869 -111.28355408 191.90380859 C-111.76731068 192.38841962 -112.25106728 192.87303064 -112.74948317 193.37232685 C-114.34227119 194.96673861 -115.93856294 196.55759189 -117.53491211 198.1484375 C-118.68885435 199.30209717 -119.84257546 200.45597807 -120.99609375 201.61006165 C-124.10698202 204.72123516 -127.22092938 207.82933005 -130.33546138 210.93685532 C-133.59772125 214.19283607 -136.85712272 217.45167573 -140.11683655 220.71020508 C-146.28051719 226.8707858 -152.44674103 233.02881438 -158.61389691 239.18591595 C-165.63888514 246.19970136 -172.6610118 253.21634877 -179.68290699 260.23323059 C-194.11877024 274.65865979 -208.55819914 289.0805153 -223 303.5 C-227.00369945 301.64743511 -229.77893066 299.01680606 -232.86669922 295.92382812 C-233.73094009 295.06966309 -233.73094009 295.06966309 -234.61264038 294.19824219 C-236.51533081 292.31454194 -238.41039519 290.42339304 -240.3046875 288.53125 C-241.62966515 287.21270275 -242.95479152 285.89430493 -244.28005981 284.5760498 C-247.05926562 281.80882162 -249.83430298 279.03748727 -252.60693359 276.26367188 C-256.14280544 272.72759755 -259.69218941 269.20544043 -263.24537468 265.68677521 C-265.98908957 262.9654202 -268.7235418 260.23489831 -271.45557022 257.5018158 C-272.75915745 256.20057375 -274.0659545 254.90253844 -275.37612534 253.60792542 C-291.69472809 237.46495226 -291.69472809 237.46495226 -293.7265625 228.1796875 C-293.69304687 227.25414062 -293.65953125 226.32859375 -293.625 225.375 C-293.61726563 224.44429687 -293.60953125 223.51359375 -293.6015625 222.5546875 C-292.19942016 215.43471797 -288.35323765 210.2600568 -283.2409668 205.30273438 C-282.67616608 204.73895584 -282.11136536 204.17517731 -281.52944946 203.59431458 C-279.67857047 201.75125547 -277.81405742 199.9226735 -275.94921875 198.09375 C-274.64796044 196.80251111 -273.34766793 195.51029828 -272.04829407 194.21716309 C-268.63520832 190.82493727 -265.21072917 187.44446062 -261.78320312 184.0668335 C-256.30609721 178.66517816 -250.84753715 173.24476753 -245.38712502 167.82624817 C-243.48986451 165.94652015 -241.58835687 164.07118201 -239.68595886 162.19665527 C-238.50631882 161.03025208 -237.32673525 159.86379177 -236.1472168 158.69726562 C-235.62697433 158.18690262 -235.10673187 157.67653961 -234.57072449 157.15071106 C-228.10142026 150.73838245 -222.36722313 143.75669423 -216.67430264 136.65730476 C-199.94755882 115.80831655 -182.45467947 95.68541738 -164.375 76 C-163.27168083 74.7955316 -163.27168083 74.7955316 -162.14607239 73.5667305 C-113.38869353 20.46327909 -73.22604124 -4.89684995 0 0 Z " fill="#FEFEFE" transform="translate(293,-8.5)"/>
<path d="M0 0 C4.27172037 1.65444856 7.1305521 4.85547566 10.28948975 8.04225159 C10.91769096 8.66803838 11.54589217 9.29382518 12.19312978 9.93857521 C14.29988092 12.03968413 16.39939903 14.14787464 18.49902344 16.25610352 C20.00656125 17.7625686 21.51453187 19.26860069 23.02290344 20.77423096 C27.12010625 24.86658179 31.21102436 28.96516292 35.30072689 33.06500745 C39.57491112 37.34796288 43.85435405 41.62565786 48.13311768 45.90403748 C55.31562967 53.0874863 62.49425554 60.27480014 69.67041016 67.46459961 C77.97979633 75.78972643 86.2944128 84.10959985 94.61203933 92.42649323 C102.60110011 100.4149448 110.58730517 108.40624454 118.57190704 116.39915276 C121.97624546 119.80703138 125.3814406 123.21405061 128.78728485 126.62042427 C132.79180582 130.6259459 136.79378043 134.63399431 140.79375267 138.64405823 C142.26676147 140.12000057 143.74063061 141.59508482 145.21539497 143.06927299 C147.21873376 145.07212502 149.21899488 147.07799892 151.21844482 149.08473206 C151.81103143 149.67577006 152.40361804 150.26680807 153.01416183 150.87575632 C157 154.88582126 157 154.88582126 157 156 C129.4631552 158.10220811 101.91804852 159.51255232 74.3125 160.3125 C72.80488177 160.35745039 72.80488177 160.35745039 71.2668066 160.40330887 C-19.29200009 163.03185309 -19.29200009 163.03185309 -49.13084412 136.05574036 C-53.89061256 131.48143473 -58.19690539 126.60611563 -62.375 121.5 C-63.38921335 120.26236593 -63.38921335 120.26236593 -64.42391586 118.99972916 C-72.5735231 108.89827298 -79.7208898 98.35422493 -86 87 C-81.56256247 81.687124 -76.88042951 76.74262837 -71.97509766 71.86157227 C-71.19393585 71.08026443 -70.41277405 70.2989566 -69.60794067 69.49397278 C-67.04567983 66.9324042 -64.47990363 64.37438812 -61.9140625 61.81640625 C-60.12879956 60.03300993 -58.34375842 58.24939154 -56.55892944 56.46556091 C-52.35355877 52.26360797 -48.14596893 48.06388593 -43.93727815 43.86525911 C-39.14201069 39.08120723 -34.34961586 34.29428207 -29.55744863 29.50712502 C-19.70813696 19.66823821 -9.85526086 9.83292745 0 0 Z " fill="#A193F8" transform="translate(206,260)"/>
</svg>
