<?xml version="1.0" encoding="UTF-8"?>
<svg version="1.1" xmlns="http://www.w3.org/2000/svg" width="512" height="512">
<path d="M0 0 C0.7724707 0.18804199 1.54494141 0.37608398 2.34082031 0.56982422 C27.70973107 6.92976056 49.73500533 19.50523203 69 37 C69.84949219 37.76570313 70.69898438 38.53140625 71.57421875 39.3203125 C100.05698335 66.38123217 115.22763733 104.92751763 116.28564453 143.8359375 C116.75454713 184.89475438 101.12454291 222.49400073 72.96484375 252.02734375 C63.10917388 262.06178627 52.2269964 270.08908899 40 277 C39.36368652 277.36077637 38.72737305 277.72155273 38.07177734 278.09326172 C21.3979082 287.36887654 1.25454041 295 -18 295 C-18 298.96 -18 302.92 -18 307 C-16.1128125 306.9071875 -16.1128125 306.9071875 -14.1875 306.8125 C-10.27678571 306.8125 -10.27678571 306.8125 -8.0625 308.3125 C-5.54887517 312.30472767 -5.85203268 316.37142799 -5.85473633 320.90869141 C-5.85137772 321.71397278 -5.8480191 322.51925415 -5.84455872 323.34893799 C-5.83504566 326.01649512 -5.83310503 328.68398944 -5.83203125 331.3515625 C-5.82881751 333.20901516 -5.82545335 335.06646756 -5.82194519 336.92391968 C-5.81595205 340.8228209 -5.81410534 344.72169996 -5.81469727 348.62060547 C-5.81479858 353.60030751 -5.80117927 358.57986597 -5.78392506 363.55953407 C-5.77276487 367.39957319 -5.77077934 371.23957813 -5.77130699 375.07963181 C-5.77013166 376.91431546 -5.76573515 378.74900014 -5.75797462 380.58366776 C-5.74809912 383.16085863 -5.75108297 385.73774487 -5.75708008 388.31494141 C-5.75146057 389.06333282 -5.74584106 389.81172424 -5.74005127 390.58279419 C-5.79509429 399.96323424 -7.69802607 407.85149226 -14 415 C-20.8700088 420.94300207 -27.49078717 423.35896598 -36.5 422.875 C-44.2818556 421.94807537 -49.92282393 419.03772289 -55 413 C-59.65269737 406.27797264 -61.15023167 401.49974356 -61.16113281 393.26171875 C-61.16858017 391.92229721 -61.16858017 391.92229721 -61.17617798 390.55581665 C-61.1907929 387.5997033 -61.19759937 384.64364355 -61.203125 381.6875 C-61.2088756 379.63631183 -61.21463335 377.58512368 -61.22039795 375.53393555 C-61.23090506 371.23323313 -61.23675009 366.93254939 -61.24023438 362.63183594 C-61.24572818 357.1134127 -61.26977635 351.59523508 -61.29820633 346.07688904 C-61.31679937 341.84077219 -61.32203646 337.60471501 -61.32357025 333.36856079 C-61.32660325 331.33353325 -61.33465345 329.29850691 -61.34775543 327.26351929 C-61.36475142 324.42158087 -61.3629519 321.58024942 -61.35644531 318.73828125 C-61.3656601 317.89351227 -61.37487488 317.04874329 -61.3843689 316.17837524 C-61.34295202 310.42307714 -61.34295202 310.42307714 -59.60471725 308.2787323 C-56.70789797 305.97037774 -53.56955763 306.82444799 -50 307 C-50 303.04 -50 299.08 -50 295 C-51.588125 294.938125 -53.17625 294.87625 -54.8125 294.8125 C-85.63110901 292.19582565 -114.93369534 275.91530516 -137 255 C-137.74419189 254.31260742 -137.74419189 254.31260742 -138.50341797 253.61132812 C-164.86623327 229.17156214 -181.90507195 193.56154669 -183.34364319 157.50109863 C-183.45536983 153.66727808 -183.49101455 149.83529964 -183.5 146 C-183.50458221 145.27804443 -183.50916443 144.55608887 -183.5138855 143.81225586 C-183.54958597 129.65308643 -181.57684652 115.82202105 -177.4375 102.25 C-177.18919434 101.43273437 -176.94088867 100.61546875 -176.68505859 99.7734375 C-164.47632 61.58757894 -136.6185511 30.39361721 -101.21142578 12.09521484 C-70.80013389 -2.96606308 -33.19433489 -8.36350591 0 0 Z M-110.75 77.8125 C-130.63978058 100.87734647 -137.91157497 129.0217256 -136 159 C-133.6744286 179.30775406 -124.47718701 200.4297121 -110 215 C-108.23092256 212.34638384 -107.15456692 209.92803965 -106.04760742 206.96166992 C-98.30779279 186.307598 -84.36064764 171.48168478 -64.33935547 162.20629883 C-60.2915705 160.41235662 -56.26625912 159.13074986 -52 158 C-52.99 157.2265625 -52.99 157.2265625 -54 156.4375 C-54.99 155.633125 -55.98 154.82875 -57 154 C-57.62777344 153.50242187 -58.25554687 153.00484375 -58.90234375 152.4921875 C-67.8434763 145.11274989 -73.8043675 135.71719846 -75 124 C-75.92563125 112.73439035 -72.9371226 101.95793657 -66 93 C-58.43705345 84.9048461 -49.27953623 79.28961566 -37.984375 78.6640625 C-24.72362396 78.38000334 -14.19565184 80.9526639 -4 90 C4.61402124 99.37311124 7.82056242 111.02664677 7.375 123.5859375 C6.24031244 133.91632216 2.03586504 142.37267871 -5 150 C-7.29810391 151.82895351 -9.5865292 153.39313648 -12.1171875 154.87890625 C-14.14679116 155.98292668 -14.14679116 155.98292668 -16 158 C-14.58460938 158.41958984 -14.58460938 158.41958984 -13.140625 158.84765625 C7.97432827 165.34222548 23.4303926 177.40263447 34.390625 196.68359375 C37.24529066 202.56614508 39.14497291 208.74248925 41 215 C56.57782096 202.97579961 65.27371294 179.74181369 67.98217773 160.83349609 C71.64288373 132.35540589 63.96571448 105.03935501 46.62109375 82.24609375 C30.43475919 61.80941248 7.29741613 48.98264905 -18.21484375 44.42578125 C-53.63488411 40.44148362 -86.21302359 51.96179946 -110.75 77.8125 Z M-37 296 C-37 299.63 -37 303.26 -37 307 C-35.02 307 -33.04 307 -31 307 C-31 303.37 -31 299.74 -31 296 C-32.98 296 -34.96 296 -37 296 Z M-48 340 C-48 355.18 -48 370.36 -48 386 C-38.43 386 -28.86 386 -19 386 C-19 370.82 -19 355.64 -19 340 C-28.57 340 -38.14 340 -48 340 Z " fill="#3186BC" transform="translate(183,66)"/>
<path d="M0 0 C1.09123169 -0.01583633 2.18246338 -0.03167267 3.3067627 -0.04798889 C4.48492554 -0.04302902 5.66308838 -0.03806915 6.87695312 -0.03295898 C8.08637573 -0.03915756 9.29579834 -0.04535614 10.54187012 -0.05174255 C13.10065911 -0.05885122 15.65949426 -0.05564863 18.21826172 -0.04296875 C22.14311436 -0.02910603 26.06558339 -0.06315998 29.99023438 -0.10131836 C32.47330788 -0.10226951 34.95638438 -0.10041098 37.43945312 -0.09545898 C39.20669739 -0.1153463 39.20669739 -0.1153463 41.00964355 -0.13563538 C42.64649109 -0.11683571 42.64649109 -0.11683571 44.31640625 -0.09765625 C45.75844421 -0.09621361 45.75844421 -0.09621361 47.22961426 -0.09474182 C49.65820312 0.53344727 49.65820312 0.53344727 51.28744221 2.61752701 C52.98632043 6.23142741 53.02750019 8.82552014 53.01896667 12.81636047 C53.02152995 13.53933781 53.02409322 14.26231515 53.02673417 15.0072009 C53.03166647 17.42413723 53.01518881 19.84044566 52.9987793 22.25732422 C52.9979329 23.99202968 52.99840841 25.72673621 53.00010681 27.46144104 C53.00096771 32.16770063 52.98332662 36.87373093 52.96238494 41.57993722 C52.94363392 46.49933984 52.94186894 51.4187477 52.93830872 56.33818054 C52.92898363 65.65246413 52.90436354 74.96664212 52.87426025 84.2808792 C52.8407307 94.88537343 52.82423386 105.48987269 52.80917394 116.09440672 C52.77781442 137.90747919 52.72504486 159.72045657 52.65820312 181.53344727 C53.53557129 181.50988159 53.53557129 181.50988159 54.43066406 181.48583984 C57.08974477 181.42334459 59.74867076 181.38441158 62.40820312 181.34594727 C63.32859375 181.32081055 64.24898438 181.29567383 65.19726562 181.26977539 C66.08671875 181.26010742 66.97617187 181.25043945 67.89257812 181.24047852 C69.11799316 181.21691284 69.11799316 181.21691284 70.36816406 181.19287109 C73.20876764 181.6153276 74.56852166 182.59830626 76.65820312 184.53344727 C77.38328741 187.41665644 76.99458389 189.50602039 76.65820312 192.53344727 C73.29875386 194.77308011 72.21019255 194.78502788 68.28426361 194.79071617 C67.16197058 194.79716506 66.03967755 194.80361396 64.88337564 194.81025827 C63.64516613 194.80716107 62.40695661 194.80406386 61.13122559 194.8008728 C59.16432526 194.80766947 59.16432526 194.80766947 57.15768957 194.81460345 C53.5103291 194.82687002 49.8630601 194.82656871 46.2156837 194.8242147 C42.28515751 194.82380746 38.35466101 194.83483665 34.42414856 194.84432983 C26.7212333 194.86096004 19.01834864 194.86644026 11.31541693 194.86755459 C5.05692777 194.86850396 -1.20155127 194.87260867 -7.46003723 194.87895584 C-25.19046755 194.89657254 -42.92087363 194.90579386 -60.65131277 194.90429489 C-61.60765397 194.90421498 -62.56399517 194.90413507 -63.54931641 194.90405273 C-64.50682031 194.90397097 -65.46432422 194.90388921 -66.45084339 194.90380497 C-81.9780309 194.9029916 -97.50512151 194.92214107 -113.03228098 194.95032947 C-128.96218219 194.9790217 -144.89203607 194.99287184 -160.82196379 194.99114192 C-169.77082122 194.99047682 -178.71957704 194.99602142 -187.66841125 195.01749802 C-195.28576443 195.03566159 -202.90296992 195.04009697 -210.52033532 195.02647917 C-214.40934297 195.0199254 -218.29806688 195.01991838 -222.18704796 195.03718567 C-226.39652245 195.0556844 -230.60533307 195.04342531 -234.81481934 195.02792358 C-236.05302886 195.03821071 -237.29123837 195.04849784 -238.56696939 195.05909669 C-240.25040894 195.04530031 -240.25040894 195.04530031 -241.96785736 195.0312252 C-242.94021379 195.03165994 -243.91257022 195.03209468 -244.91439199 195.03254259 C-247.34179688 194.53344727 -247.34179688 194.53344727 -249.18157434 192.69374239 C-250.34179688 190.53344727 -250.34179688 190.53344727 -250.27929688 187.47094727 C-249.18316168 184.03639033 -248.38145412 183.34524471 -245.34179688 181.53344727 C-243.05175781 181.19287109 -243.05175781 181.19287109 -240.57617188 181.24047852 C-239.68671875 181.25014648 -238.79726562 181.25981445 -237.88085938 181.26977539 C-236.96046875 181.29491211 -236.04007813 181.32004883 -235.09179688 181.34594727 C-234.1559375 181.35948242 -233.22007812 181.37301758 -232.25585938 181.38696289 C-229.95058361 181.42224772 -227.64648627 181.47154445 -225.34179688 181.53344727 C-225.34845871 180.31457825 -225.35512054 179.09570923 -225.36198425 177.83990479 C-225.42275525 166.36258576 -225.46775027 154.8852993 -225.49723339 143.40785599 C-225.51290042 137.50694329 -225.53415783 131.6061603 -225.56811523 125.70532227 C-225.60067137 120.01246615 -225.61864207 114.31973492 -225.6264286 108.62679291 C-225.63197883 106.45303124 -225.64281682 104.27927654 -225.65898705 102.10556793 C-225.68071127 99.06477496 -225.68376586 96.02450046 -225.68237305 92.98364258 C-225.69315887 92.08165131 -225.7039447 91.17966003 -225.71505737 90.25033569 C-225.69758765 86.73399328 -225.64653768 84.18710353 -224.14863586 80.97416687 C-221.70502385 79.02570342 -220.20326017 79.03228621 -217.09179688 79.03173828 C-216.02058594 79.02235733 -214.949375 79.01297638 -213.84570312 79.00331116 C-212.68941406 79.01454514 -211.533125 79.02577911 -210.34179688 79.03735352 C-209.15457031 79.03589828 -207.96734375 79.03444305 -206.74414062 79.03294373 C-204.23239693 79.03460477 -201.72064327 79.04618875 -199.20898438 79.06689453 C-195.35698359 79.09583317 -191.5063594 79.08750988 -187.65429688 79.07446289 C-185.21679016 79.08070043 -182.77928781 79.08909149 -180.34179688 79.09985352 C-179.18550781 79.09691788 -178.02921875 79.09398224 -176.83789062 79.09095764 C-175.76667969 79.10364182 -174.69546875 79.11632599 -173.59179688 79.12939453 C-172.64820313 79.13479752 -171.70460938 79.1402005 -170.73242188 79.14576721 C-167.84377685 79.61420959 -167.13519794 80.26975134 -165.34179688 82.53344727 C-164.97265339 84.44871044 -164.97265339 84.44871044 -164.98103333 86.65263367 C-164.97690933 87.48975891 -164.97278534 88.32688416 -164.96853638 89.18937683 C-164.9793222 90.10431412 -164.99010803 91.0192514 -165.0012207 91.96191406 C-165.00056358 93.41097641 -165.00056358 93.41097641 -164.99989319 94.88931274 C-165.00198577 98.08730167 -165.02533927 101.2847685 -165.04882812 104.48266602 C-165.0544224 106.69797987 -165.05869329 108.91329744 -165.06169128 111.12861633 C-165.07315327 116.96320823 -165.10263226 122.79757659 -165.13580322 128.63208008 C-165.16647485 134.58419775 -165.18019041 140.53635149 -165.1953125 146.48852539 C-165.22750052 158.17026431 -165.27871335 169.85183721 -165.34179688 181.53344727 C-161.05179687 181.53344727 -156.76179688 181.53344727 -152.34179688 181.53344727 C-152.35178963 178.68703865 -152.35178963 178.68703865 -152.36198425 175.78312683 C-152.42269835 157.93339321 -152.46790285 140.08368039 -152.49723339 122.23386669 C-152.51271414 113.05625962 -152.53382667 103.87872954 -152.56811523 94.70117188 C-152.59798069 86.70368805 -152.61736309 78.70625997 -152.62406236 70.70872194 C-152.62797948 66.47255035 -152.63721016 62.23653826 -152.65898705 58.00041771 C-152.67930722 54.01548213 -152.6856398 50.03077218 -152.68111992 46.04578972 C-152.68194713 44.58122279 -152.68793947 43.11664853 -152.6994133 41.65212631 C-152.71428569 39.65637889 -152.7089752 37.66051116 -152.70256042 35.66471863 C-152.7053258 34.54658374 -152.70809118 33.42844885 -152.71094036 32.27643108 C-152.34179688 29.53344727 -152.34179688 29.53344727 -150.9658699 27.67447281 C-148.67085934 26.06206645 -146.98938161 26.14572925 -144.19946289 26.12939453 C-142.62751915 26.11036827 -142.62751915 26.11036827 -141.02381897 26.09095764 C-139.89254074 26.09389328 -138.76126251 26.09682892 -137.59570312 26.09985352 C-135.85171486 26.09199074 -135.85171486 26.09199074 -134.07249451 26.08396912 C-131.6120585 26.0775415 -129.1515918 26.07889541 -126.69116211 26.08740234 C-122.92245834 26.09590628 -119.15527245 26.06716824 -115.38671875 26.03540039 C-112.99804733 26.03378822 -110.60937322 26.03436622 -108.22070312 26.03735352 C-107.09144913 26.02611954 -105.96219513 26.01488556 -104.79872131 26.00331116 C-103.74760666 26.01269211 -102.696492 26.02207306 -101.61352539 26.03173828 C-100.68991714 26.03190445 -99.7663089 26.03207062 -98.81471252 26.03224182 C-95.4887 26.70635118 -94.44309972 27.89265775 -92.34179688 30.53344727 C-91.84960556 33.38386154 -91.84960556 33.38386154 -91.86077881 36.74700928 C-91.85528015 38.0230452 -91.84978149 39.29908112 -91.84411621 40.61378479 C-91.85827194 42.02548594 -91.87281117 43.43718329 -91.88769531 44.84887695 C-91.88882374 46.33713246 -91.88819001 47.8253902 -91.88592529 49.31364441 C-91.88477703 53.35272991 -91.90830413 57.39134082 -91.93622112 61.43031597 C-91.96121626 65.6517007 -91.96357528 69.87309615 -91.96832275 74.09454346 C-91.98075811 82.08789906 -92.01358721 90.08103599 -92.05372071 98.07429528 C-92.09842107 107.17454676 -92.12042108 116.27480865 -92.14050245 125.37514257 C-92.18231942 144.09470491 -92.25348744 162.8140505 -92.34179688 181.53344727 C-88.38179687 181.53344727 -84.42179688 181.53344727 -80.34179688 181.53344727 C-80.3462381 179.97409958 -80.35067932 178.41475189 -80.35525513 176.80815125 C-80.39573888 162.13709295 -80.42587127 147.46605511 -80.44542122 132.79495525 C-80.45573972 125.25178982 -80.46981099 117.70866604 -80.49267578 110.16552734 C-80.51259212 103.591962 -80.52550914 97.01842682 -80.52997386 90.44483215 C-80.53258423 86.96322605 -80.53873157 83.48170626 -80.55325699 80.00012779 C-80.5693297 76.11627951 -80.56977769 72.23251615 -80.56884766 68.34863281 C-80.57603821 67.19057632 -80.58322876 66.03251984 -80.59063721 64.83937073 C-80.58788788 63.78347748 -80.58513855 62.72758423 -80.58230591 61.63969421 C-80.58414949 60.72066661 -80.58599308 59.801639 -80.58789253 58.85476208 C-80.34179688 56.53344727 -80.34179688 56.53344727 -78.34179688 53.53344727 C-75.40508738 52.5545441 -73.44610638 52.39042917 -70.38305664 52.35644531 C-68.87117516 52.33719246 -68.87117516 52.33719246 -67.32875061 52.31755066 C-65.69745461 52.30647026 -65.69745461 52.30647026 -64.03320312 52.29516602 C-62.91493637 52.28709427 -61.79666962 52.27902252 -60.64451599 52.27070618 C-58.27824451 52.25687219 -55.91195314 52.24614697 -53.5456543 52.23828125 C-49.92198182 52.22103145 -46.29921294 52.17713372 -42.67578125 52.13305664 C-40.37826192 52.12293294 -38.08073484 52.11441583 -35.78320312 52.10766602 C-34.69769669 52.09015793 -33.61219025 52.07264984 -32.49378967 52.05461121 C-31.48271652 52.05753677 -30.47164337 52.06046234 -29.42993164 52.06347656 C-28.54185318 52.05761032 -27.65377472 52.05174408 -26.73878479 52.04570007 C-23.49466835 52.70582384 -22.42194634 53.99315929 -20.34179688 56.53344727 C-19.84960556 58.97780991 -19.84960556 58.97780991 -19.86077881 61.75994873 C-19.85528015 62.81721664 -19.84978149 63.87448456 -19.84411621 64.96379089 C-19.86568787 66.69548271 -19.86568787 66.69548271 -19.88769531 68.4621582 C-19.88711121 69.68193863 -19.8865271 70.90171906 -19.88592529 72.15846252 C-19.88823393 75.49941653 -19.90828688 78.83938076 -19.93622112 82.18015957 C-19.96123382 85.67283141 -19.96357665 89.16551657 -19.96832275 92.65826416 C-19.98075299 99.27041911 -20.013575 105.88230939 -20.05372071 112.49434781 C-20.09843713 120.02267587 -20.12042509 127.5510166 -20.14050245 135.07944441 C-20.1823078 150.56426948 -20.25346662 166.04881384 -20.34179688 181.53344727 C-16.38179687 181.53344727 -12.42179688 181.53344727 -8.34179688 181.53344727 C-8.34456225 180.62492382 -8.34732763 179.71640038 -8.35017681 178.78034592 C-8.41638674 156.6892154 -8.46605314 134.59810196 -8.49723339 112.50689316 C-8.51271213 101.82381378 -8.53382088 91.14080058 -8.56811523 80.45776367 C-8.59798677 71.14805344 -8.61736455 61.83839113 -8.62406236 52.52863431 C-8.62797842 47.59771116 -8.63720262 42.66692511 -8.65898705 37.73604584 C-8.67931671 33.09695721 -8.68563781 28.45806243 -8.68111992 23.81893349 C-8.6819467 22.11451731 -8.68793329 20.4100948 -8.6994133 18.70571709 C-8.71430259 16.38159502 -8.71076388 14.05820831 -8.70256042 11.73406982 C-8.7053258 10.43249813 -8.70809118 9.13092644 -8.71094036 7.78991318 C-8.0350469 1.82739701 -5.83778939 0.03764047 0 0 Z " fill="#5A63AA" transform="translate(435.341796875,297.466552734375)"/>
<path d="M0 0 C12.66609138 11.64413291 18.95446913 26.66594588 20.6328125 43.53125 C21.2276306 59.55168413 15.83787955 75.67390737 5.0625 87.5625 C0.87881048 92.02486274 -3.64408658 95.9043737 -8.59375 99.49609375 C-10.88237868 101.2016137 -10.88237868 101.2016137 -11.76953125 104.015625 C-13.6875 106.3125 -13.6875 106.3125 -15.97998047 106.71118164 C-18.96393265 106.80622681 -21.89113622 106.74613839 -24.875 106.625 C-28.443125 106.521875 -32.01125 106.41875 -35.6875 106.3125 C-35.6875 92.4525 -35.6875 78.5925 -35.6875 64.3125 C-33.7075 63.3225 -31.7275 62.3325 -29.6875 61.3125 C-25.33945199 56.76681345 -22.95564364 53.20845136 -22.375 46.9375 C-22.84383436 41.49902141 -24.48812407 37.77840392 -27.9375 33.5625 C-32.58672027 29.75859251 -36.60838637 28.00084575 -42.625 28.25 C-48.13013991 29.03045429 -51.89542993 31.2839939 -55.6875 35.3125 C-58.82581904 40.5103409 -59.45908403 45.37891011 -58.6875 51.3125 C-56.84858509 56.82924474 -53.24611354 59.94022444 -48.6875 63.3125 C-47.6975 63.8075 -47.6975 63.8075 -46.6875 64.3125 C-46.6875 78.1725 -46.6875 92.0325 -46.6875 106.3125 C-53.6175 106.3125 -60.5475 106.3125 -67.6875 106.3125 C-69.3375 104.0025 -70.9875 101.6925 -72.6875 99.3125 C-74.792078 97.36884981 -74.792078 97.36884981 -77 95.875 C-90.7402589 85.54705706 -98.98379861 72.4189377 -101.6875 55.3125 C-103.36396631 37.73990137 -98.89399129 21.63332522 -88.515625 7.31640625 C-65.58015027 -19.40098187 -27.19681081 -21.19475601 0 0 Z " fill="#189BC7" transform="translate(443.6875,82.6875)"/>
<path d="M0 0 C17.16 0 34.32 0 52 0 C52 5.94 52 11.88 52 18 C46.10504939 23.89495061 43.76505396 24.15655451 36.0078125 24.16796875 C35.22485809 24.17129715 34.44190369 24.17462555 33.63522339 24.17805481 C31.97931505 24.18311519 30.32339653 24.18546341 28.66748047 24.18530273 C26.14142934 24.1874858 23.61581743 24.20564117 21.08984375 24.22460938 C19.47916816 24.22754421 17.86849049 24.2295284 16.2578125 24.23046875 C15.50557404 24.23765427 14.75333557 24.24483978 13.978302 24.25224304 C9.89008619 24.23454476 6.5871028 24.04118813 3 22 C0 18 0 18 0 0 Z " fill="#2B8BBE" transform="translate(377,200)"/>
<path d="M0 0 C3.23160693 1.88638035 5.67335289 4.44327736 8.22949219 7.14501953 C8.761875 7.68707031 9.29425781 8.22912109 9.84277344 8.78759766 C14.74050366 13.82864568 14.74050366 13.82864568 15.16699219 18.52001953 C14.85449219 22.08251953 14.85449219 22.08251953 13.22949219 24.08251953 C9.85954766 25.50144354 8.37810253 25.14578441 4.85449219 24.08251953 C1.97909749 21.96751031 -0.46613377 19.5053088 -2.95800781 16.95751953 C-3.63798828 16.30525391 -4.31796875 15.65298828 -5.01855469 14.98095703 C-10.45600541 9.51640037 -10.45600541 9.51640037 -11.17285156 5.20751953 C-11.14550781 2.08251953 -11.14550781 2.08251953 -9.89550781 0.20751953 C-6.06554885 -2.25459695 -4.02660636 -1.86291441 0 0 Z " fill="#268FC2" transform="translate(467.1455078125,183.91748046875)"/>
<path d="M0 0 C2.0625 1.625 2.0625 1.625 3 4 C3.01616527 9.50427428 0.54929308 12.09764817 -3.12695312 15.81054688 C-3.80693359 16.47119141 -4.48691406 17.13183594 -5.1875 17.8125 C-6.1784668 18.8324707 -6.1784668 18.8324707 -7.18945312 19.87304688 C-10.90235183 23.54929308 -13.49572572 26.01616527 -19 26 C-21.375 25.0625 -21.375 25.0625 -23 23 C-23.60010191 18.96018355 -23.90801524 16.45596739 -21.71630859 12.94165039 C-19.91012266 10.83254935 -18.00846353 8.9169965 -16 7 C-15.35160156 6.32066406 -14.70320313 5.64132813 -14.03515625 4.94140625 C-9.34956211 0.33003934 -6.5669373 -0.97549768 0 0 Z " fill="#288FC0" transform="translate(347,183)"/>
<path d="M0 0 C1.875 1.0625 1.875 1.0625 3 3 C3.57187801 6.49675029 3.70650981 8.93292565 1.70214844 11.96020508 C-0.13290759 14.04050258 -2.05532502 15.96052207 -4.0625 17.875 C-5.04766602 18.88820313 -5.04766602 18.88820313 -6.05273438 19.921875 C-9.3136857 23.12178389 -11.35541763 24.82557588 -15.83984375 26.0390625 C-19 26 -19 26 -21.5 24.5 C-23 22 -23 22 -23.02734375 18.8046875 C-21.63258627 13.63931188 -18.9054055 11.19749292 -15.0625 7.625 C-14.41603516 6.99722656 -13.76957031 6.36945312 -13.10351562 5.72265625 C-8.66576942 1.45541535 -6.45481251 -0.52692347 0 0 Z " fill="#09A8CD" transform="translate(479,50)"/>
<path d="M0 0 C2.95957482 2.03921924 5.451231 4.47578562 8 7 C8.65871094 7.62132812 9.31742187 8.24265625 9.99609375 8.8828125 C15.45500164 14.12608785 15.45500164 14.12608785 17 18 C16.8125 21.125 16.8125 21.125 16 24 C12.36957149 26.42028567 11.28254924 26.76724828 7 26 C3.87503113 23.80205907 1.28556587 21.16782754 -1.375 18.4375 C-2.11105469 17.73302734 -2.84710938 17.02855469 -3.60546875 16.30273438 C-8.85770503 11.01639267 -8.85770503 11.01639267 -9.546875 6.09375 C-9 3 -9 3 -7.875 1.0625 C-4.88360708 -0.63262266 -3.41358101 -0.64407189 0 0 Z " fill="#09A9CD" transform="translate(333,50)"/>
<path d="M0 0 C1.15371094 -0.02449219 2.30742187 -0.04898438 3.49609375 -0.07421875 C4.60082031 -0.07808594 5.70554687 -0.08195312 6.84375 -0.0859375 C7.85630859 -0.09415527 8.86886719 -0.10237305 9.91210938 -0.11083984 C12.5 0.375 12.5 0.375 14.36132812 2.17724609 C16.08554927 5.50517035 15.41851149 7.83216996 14.5 11.375 C9.95258612 14.40660925 5.47662217 13.78291487 0.125 13.8125 C-0.9165625 13.84537109 -1.958125 13.87824219 -3.03125 13.91210938 C-10.68105104 13.96591232 -10.68105104 13.96591232 -14.7265625 11.046875 C-16.5 8.375 -16.5 8.375 -16.5 5.1875 C-14.01060027 -1.81393675 -6.1797502 0.00690475 0 0 Z " fill="#189BC7" transform="translate(309.5,122.625)"/>
<path d="M0 0 C1.10472656 -0.00386719 2.20945312 -0.00773437 3.34765625 -0.01171875 C4.50136719 -0.00011719 5.65507812 0.01148437 6.84375 0.0234375 C8.57431641 0.00603516 8.57431641 0.00603516 10.33984375 -0.01171875 C11.44457031 -0.00785156 12.54929687 -0.00398438 13.6875 0 C14.70005859 0.00338379 15.71261719 0.00676758 16.75585938 0.01025391 C19.34375 0.3984375 19.34375 0.3984375 21.16992188 1.70458984 C23.16286258 4.5804265 22.76435356 7.03360903 22.34375 10.3984375 C18.58560034 14.14415369 15.05448095 13.81545266 10.01171875 13.85742188 C8.44357422 13.84678711 8.44357422 13.84678711 6.84375 13.8359375 C5.79832031 13.85591797 4.75289063 13.87589844 3.67578125 13.89648438 C2.16564453 13.89551758 2.16564453 13.89551758 0.625 13.89453125 C-0.29216797 13.89638428 -1.20933594 13.8982373 -2.15429688 13.90014648 C-5.42465337 13.24435193 -6.61945343 11.99101702 -8.65625 9.3984375 C-9.10236084 6.27566163 -9.34193405 4.36735128 -7.48242188 1.73974609 C-4.93948438 -0.1280211 -3.13518611 0.01047723 0 0 Z " fill="#199BC7" transform="translate(489.65625,122.6015625)"/>
<path d="M0 0 C1.66650391 1.16210938 1.66650391 1.16210938 3 3 C3.38818359 5.58789062 3.38818359 5.58789062 3.3984375 8.65625 C3.40230469 9.76097656 3.40617187 10.86570312 3.41015625 12.00390625 C3.39855469 13.15761719 3.38695312 14.31132813 3.375 15.5 C3.38660156 16.65371094 3.39820313 17.80742188 3.41015625 18.99609375 C3.40628906 20.10082031 3.40242188 21.20554687 3.3984375 22.34375 C3.39505371 23.35630859 3.39166992 24.36886719 3.38818359 25.41210938 C3 28 3 28 1.66259766 29.83398438 C-0.901041 31.63191951 -2.95800353 31.31687463 -6 31 C-9 29 -9 29 -10 26 C-10.22896406 22.52474884 -10.18515836 19.04451922 -10.1875 15.5625 C-10.19974609 14.60794922 -10.21199219 13.65339844 -10.22460938 12.66992188 C-10.22654297 11.74888672 -10.22847656 10.82785156 -10.23046875 9.87890625 C-10.23457764 9.0391626 -10.23868652 8.19941895 -10.24291992 7.33422852 C-9.97610314 4.77037401 -9.37239101 3.17187137 -8 1 C-5.20129973 -0.39935013 -3.09501208 -0.25265405 0 0 Z " fill="#03AED0" transform="translate(406,20)"/>
<path d="M0 0 C2.562964 2.23225897 2.93752331 3.58051369 3.4375 6.9375 C2.87499856 10.87501007 2.03727005 12.41832046 -1 15 C-3.80141726 15.66017005 -6.19243175 15.60984064 -9 15 C-11.5 13.4375 -11.5 13.4375 -13 11 C-13.46918683 7.24650538 -13.53136381 4.96151547 -11.6875 1.625 C-8.08559885 -1.8434974 -4.55940718 -1.05843381 0 0 Z " fill="#189BC6" transform="translate(408,122)"/>
</svg>
